<?xml version="1.0" encoding="UTF-8" standalone="no"?>
<!-- Created with Inkscape (http://www.inkscape.org/) -->

<svg
   xmlns:dc="http://purl.org/dc/elements/1.1/"
   xmlns:cc="http://creativecommons.org/ns#"
   xmlns:rdf="http://www.w3.org/1999/02/22-rdf-syntax-ns#"
   xmlns:svg="http://www.w3.org/2000/svg"
   xmlns="http://www.w3.org/2000/svg"
   xmlns:sodipodi="http://sodipodi.sourceforge.net/DTD/sodipodi-0.dtd"
   xmlns:inkscape="http://www.inkscape.org/namespaces/inkscape"
   width="744.09448819"
   height="1052.3622047"
   id="svg2"
   version="1.1"
   inkscape:version="0.48.2 r9819"
   sodipodi:docname="cover_top.svg">
  <defs
     id="defs4">
    <clipPath
       id="clipPath3020"
       clipPathUnits="userSpaceOnUse">
      <path
         id="path3022"
         d="m 302.16,212.64 0,187.2 187.2,0 0,-187.2 -187.2,0 z" />
    </clipPath>
    <clipPath
       id="clipPath3291"
       clipPathUnits="userSpaceOnUse">
      <path
         id="path3293"
         d="m 208.56,212.64 0,187.2 374.64,0 0,-187.2 -374.64,0 z" />
    </clipPath>
  </defs>
  <sodipodi:namedview
     id="base"
     pagecolor="#ffffff"
     bordercolor="#666666"
     borderopacity="1.0"
     inkscape:pageopacity="0.0"
     inkscape:pageshadow="2"
     inkscape:zoom="1.89"
     inkscape:cx="312.63487"
     inkscape:cy="793.61571"
     inkscape:document-units="px"
     inkscape:current-layer="layer1"
     showgrid="false"
     inkscape:window-width="1366"
     inkscape:window-height="720"
     inkscape:window-x="49"
     inkscape:window-y="49"
     inkscape:window-maximized="0" />
  <metadata
     id="metadata7">
    <rdf:RDF>
      <cc:Work
         rdf:about="">
        <dc:format>image/svg+xml</dc:format>
        <dc:type
           rdf:resource="http://purl.org/dc/dcmitype/StillImage" />
        <dc:title></dc:title>
      </cc:Work>
    </rdf:RDF>
  </metadata>
  <g
     inkscape:label="Layer 1"
     inkscape:groupmode="layer"
     id="layer1">
    <g
       id="g3024"
       transform="matrix(0.3,0,0,0.3,-292.9371,-118.39746)"
       style="stroke:#ff0000;stroke-opacity:1;stroke-width:2.36220473;stroke-miterlimit:4;stroke-dasharray:none" />
    <g
       id="g3028"
       transform="matrix(0.3,0,0,0.3,-292.9371,-118.39746)"
       style="stroke:#ff0000;stroke-opacity:1;stroke-width:2.36220473;stroke-miterlimit:4;stroke-dasharray:none" />
    <g
       id="g3032"
       transform="matrix(0.3,0,0,0.3,-292.9371,-118.39746)"
       style="stroke:#ff0000;stroke-opacity:1;stroke-width:2.36220473;stroke-miterlimit:4;stroke-dasharray:none" />
    <g
       id="g3036"
       transform="matrix(0.3,0,0,0.3,-292.9371,-118.39746)"
       style="stroke:#ff0000;stroke-opacity:1;stroke-width:2.36220473;stroke-miterlimit:4;stroke-dasharray:none" />
    <g
       id="g3040"
       transform="matrix(0.3,0,0,0.3,-292.9371,-118.39746)"
       style="stroke:#ff0000;stroke-opacity:1;stroke-width:2.36220473;stroke-miterlimit:4;stroke-dasharray:none" />
    <g
       id="g3044"
       transform="matrix(0.3,0,0,0.3,-292.9371,-118.39746)"
       style="stroke:#ff0000;stroke-opacity:1;stroke-width:2.36220473;stroke-miterlimit:4;stroke-dasharray:none" />
    <g
       id="g3048"
       transform="matrix(0.3,0,0,0.3,-292.9371,-118.39746)"
       style="stroke:#ff0000;stroke-opacity:1;stroke-width:2.36220473;stroke-miterlimit:4;stroke-dasharray:none" />
    <g
       id="g3052"
       transform="matrix(-0.3,0,0,0.3,696.1629,-118.39746)"
       style="stroke:#ff0000;stroke-width:2.36220479;stroke-miterlimit:4;stroke-opacity:1;stroke-dasharray:none">
      <path
         id="path3054"
         style="fill:none;stroke:#ff0000;stroke-width:2.36220479;stroke-linecap:round;stroke-linejoin:round;stroke-miterlimit:4;stroke-opacity:1;stroke-dasharray:none"
         d="m 2037,1627 0,-707.0002 -1,-10.9999 -5,-10 -8,-8 -10,-5.0001 -11,-1 -707,0 -11,1 -10,5.0001 -8,8 -5,10 -1,10.9999 0,707.0002 1,11 5,10 8,8 10,5 11,1 707,0 11,-1 10,-5 8,-8 5,-10 1,-11"
         inkscape:connector-curvature="0"
         sodipodi:nodetypes="ccccccccccccccccccccccccc" />
    </g>
    <g
       id="g3056"
       transform="matrix(-0.3,0,0,0.3,696.1629,-118.39746)"
       style="stroke:#0000ff;stroke-width:2.36220479;stroke-miterlimit:4;stroke-opacity:1;stroke-dasharray:none">
      <path
         inkscape:connector-curvature="0"
         d="m 1360,1580 c 0,9.941 -8.059,18 -18,18 -9.941,0 -18,-8.059 -18,-18 0,-9.941 8.059,-18 18,-18 9.941,0 18,8.059 18,18"
         style="fill:none;stroke:#0000ff;stroke-width:2.36220479;stroke-linecap:round;stroke-linejoin:round;stroke-miterlimit:4;stroke-opacity:1;stroke-dasharray:none"
         id="path3058" />
    </g>
    <g
       id="g3060"
       transform="matrix(-0.3,0,0,0.3,696.1629,-118.39746)"
       style="stroke:#0000ff;stroke-width:2.36220479;stroke-miterlimit:4;stroke-opacity:1;stroke-dasharray:none">
      <path
         inkscape:connector-curvature="0"
         d="m 1973,1580 c 0,9.941 -8.059,18 -18,18 -9.941,0 -18,-8.059 -18,-18 0,-9.941 8.059,-18 18,-18 9.941,0 18,8.059 18,18"
         style="fill:none;stroke:#0000ff;stroke-width:2.36220479;stroke-linecap:round;stroke-linejoin:round;stroke-miterlimit:4;stroke-opacity:1;stroke-dasharray:none"
         id="path3062" />
    </g>
    <g
       id="g3064"
       transform="matrix(-0.3,0,0,0.3,696.1629,-118.39746)"
       style="stroke:#0000ff;stroke-width:2.36220479;stroke-miterlimit:4;stroke-opacity:1;stroke-dasharray:none">
      <path
         inkscape:connector-curvature="0"
         d="m 1973,966.9998 c 0,9.9411 -8.059,18 -18,18 -9.941,0 -18,-8.0589 -18,-18 0,-9.9411 8.059,-18 18,-18 9.941,0 18,8.0589 18,18"
         style="fill:none;stroke:#0000ff;stroke-width:2.36220479;stroke-linecap:round;stroke-linejoin:round;stroke-miterlimit:4;stroke-opacity:1;stroke-dasharray:none"
         id="path3066" />
    </g>
    <g
       id="g3068"
       transform="matrix(-0.3,0,0,0.3,696.1629,-118.39746)"
       style="stroke:#0000ff;stroke-width:2.36220479;stroke-miterlimit:4;stroke-opacity:1;stroke-dasharray:none">
      <path
         inkscape:connector-curvature="0"
         d="m 1360,966.9998 c 0,9.9411 -8.059,18 -18,18 -9.941,0 -18,-8.0589 -18,-18 0,-9.9411 8.059,-18 18,-18 9.941,0 18,8.0589 18,18"
         style="fill:none;stroke:#0000ff;stroke-width:2.36220479;stroke-linecap:round;stroke-linejoin:round;stroke-miterlimit:4;stroke-opacity:1;stroke-dasharray:none"
         id="path3070" />
    </g>
    <g
       id="g3076"
       transform="matrix(0.3,0,0,0.3,-292.9371,-118.39746)"
       style="stroke:#0000ff;stroke-opacity:1;stroke-width:2.36220473;stroke-miterlimit:4;stroke-dasharray:none" />
    <g
       id="g3080"
       transform="matrix(0.3,0,0,0.3,-292.9371,-118.39746)"
       style="stroke:#0000ff;stroke-opacity:1;stroke-width:2.36220473;stroke-miterlimit:4;stroke-dasharray:none" />
    <g
       id="g3084"
       transform="matrix(0.3,0,0,0.3,-292.9371,-118.39746)"
       style="stroke:#0000ff;stroke-opacity:1;stroke-width:2.36220473;stroke-miterlimit:4;stroke-dasharray:none" />
  </g>
</svg>
